# xmcd CD database file
#
# Track frame offsets:
#	150
#	21504
#	37023
#	50187
#	65770
#	81886
#	100908
#	114615
#	131944
#	151035
#	156801
#	175182
#	193025
#	208330
#	225612
#	241410
#	259470
#	274170
#
# Disc length: 3929 seconds
#
# Revision: 0
# Processed by: cddbd v1.5.1PL2 Copyright (c) Steve Scherf et al.
# Submitted via: CDex 1.51
#
DISCID=120f5712
DTITLE=Various Artist - KBCO Studio C Select 2
DYEAR=2000
DGENRE=Blues
TTITLE0=John Hiatt - The Tiki bar is open
TTITLE1=Emmlou Harris et al - Everywhere I go
TTITLE2=John Gorka - Baby blues
TTITLE3=Joe Satriani - Always with me
TTITLE4=John Hiatt - Have a little faith in me
TTITLE5=Francis Dunnery - Too much Saturn
TTITLE6=James Taylor - Something in the way she moves
TTITLE7=Fourth estate - Joy
TTITLE8=Hazer Miller and the caucasians - Shine the light
TTITLE9=Goo goo dolls - Name
TTITLE10=Heather Nova - London rain
TTITLE11=Indigo girls - Jonas and Ezekiel
TTITLE12=Emmylou Harris - Orphan girl
TTITLE13=Indigo girls - Shame on you
TTITLE14=Jesse Colin Young - Desire
TTITLE15=Joan Armatrading - The weakness in me
TTITLE16=London Wainwright III - Cardboard boxes
TTITLE17=Liz Barnez band - Dont worry about yourself
EXTD=YEAR: 2000
EXTT0=
EXTT1=
EXTT2=
EXTT3=
EXTT4=
EXTT5=
EXTT6=
EXTT7=
EXTT8=
EXTT9=
EXTT10=
EXTT11=
EXTT12=
EXTT13=
EXTT14=
EXTT15=
EXTT16=
EXTT17=
PLAYORDER=
